<?xml version="1.0" encoding="UTF-8"?>
<svg id="Camada_1" data-name="Camada 1" xmlns="http://www.w3.org/2000/svg" viewBox="0 0 3266.3 436.87">
  <defs>
    <style>
      .cls-1 {
        stroke-width: 0px;
      }
    </style>
  </defs>
  <path class="cls-1" d="M39.36,186.71v-34.54l131.57-85.25v45.39l-90.29,56.45v1.36l90.29,56.45v45.39L39.36,186.71Z"/>
  <path class="cls-1" d="M221.29,254.47l28.8-34.46c16.77,13.73,37.45,23.14,58.94,23.14s31.13-8.25,31.13-19.09c0-15.96-13.18-19.82-34.16-28.61l-28.89-12.33c-24.57-9.34-46.99-28.18-46.99-60.45,0-36.72,33.08-66.08,81.25-66.08,26.67,0,53.62,10,73.64,29.03l-25.28,31.63c-15.61-11.21-29.43-17.32-51.1-17.32-16.53,0-27.75,6.85-27.75,19.8s14.86,18.21,36.13,26.19l27.13,11.49c29.03,10.89,47.37,28.99,47.37,60.28,0,36.86-30.92,68.78-85.81,68.78-29.96,0-60.9-10.97-84.41-32.02Z"/>
  <path class="cls-1" d="M467.58,212.45v-59.6h-42.53v-37.3l44.78-1.95,6.44-51.6h41.4v51.6h71.16v39.24h-71.16v58.96c0,25.67,10.85,35.34,35.47,35.34,12.61,0,23.39-2.57,33.33-6.01l9.07,36.22c-14.97,4.46-32.68,9.13-55.15,9.13-53.71,0-72.8-29.77-72.8-74.03Z"/>
  <path class="cls-1" d="M628.43,198.1c0-56.2,41.54-88.57,86.08-88.57s86.08,32.38,86.08,88.57-41.54,88.38-86.08,88.38-86.08-32.38-86.08-88.38ZM749.32,198.1c0-29.27-11.77-48.16-34.82-48.16s-34.82,18.89-34.82,48.16,11.77,47.97,34.82,47.97,34.82-18.8,34.82-47.97Z"/>
  <path class="cls-1" d="M839.38,198.1c0-56.2,45.63-88.57,97.61-88.57,26.63,0,49.07,9.41,63.17,22.93l-23.03,31.04c-12.87-9.36-24.71-13.56-37.4-13.56-29.02,0-49.09,18.89-49.09,48.16s19.72,47.97,47.42,47.97c17.71,0,32.27-7.71,44.41-16.09l20.2,31.63c-20.34,17.07-46.32,24.88-69.35,24.88-53.19,0-93.94-32.38-93.94-88.38Z"/>
  <path class="cls-1" d="M1046.38,44.08h50.09v137.39h1.36l62.04-67.86h54.66l-118.07,126.34v42.46h-50.09V44.08ZM1116.63,205.91l28.8-31.14,74.52,107.63h-54.38l-48.93-76.49Z"/>
  <path class="cls-1" d="M1252.79,115.56l46.26-1.95h106.35v39.24h-152.61v-37.3ZM1297.38,109.23c0-38.68,22.57-69.24,75.52-69.24,19.28,0,36.89,4.29,51.07,9.04l-9.66,36.81c-10.66-4.07-22.44-6.6-35.26-6.6-21.5,0-31.69,9.31-31.69,29.71v173.45h-49.99V109.23Z"/>
  <path class="cls-1" d="M1498.96,216.39V83.32h-53.12v-39.24h103.21v174.35c0,20.87,13.42,27.64,27.51,27.64,7.81,0,16.05-1.65,26.3-5.52l11.07,36.81c-17.52,5.73-29.39,9.13-50.37,9.13-42.5,0-64.6-27.29-64.6-70.1Z"/>
  <path class="cls-1" d="M1649.15,198.1c0-56.2,41.54-88.57,86.08-88.57s86.08,32.38,86.08,88.57-41.54,88.38-86.08,88.38-86.08-32.38-86.08-88.38ZM1770.04,198.1c0-29.27-11.77-48.16-34.82-48.16s-34.82,18.89-34.82,48.16,11.77,47.97,34.82,47.97,34.82-18.8,34.82-47.97Z"/>
  <path class="cls-1" d="M1838.54,113.61h48.52l10.41,78.27c2.08,16.63,3.48,32.89,5.52,50.01h1.12c1.8-17.12,4.31-33.96,7.81-50.01l10.59-55.79h36.25l10.9,55.79c3.25,16.63,6.2,32.89,8.49,50.01h1.36c2.23-17.12,2.95-33.38,4.78-50.01l9.42-78.27h46.48l-26.06,168.79h-58.65l-9.23-54.88c-2.23-14.51-4.22-30.6-6.2-49.98h-1.36c-1.49,14.22-2.99,28.83-5.71,49.98l-9.04,54.88h-57.67l-27.72-168.79Z"/>
  <path class="cls-1" d="M2103.92,246.52c0-22.17,16.18-39.97,39.59-39.97s39.59,17.8,39.59,39.97-16.18,39.97-39.59,39.97-39.59-17.46-39.59-39.97Z"/>
  <path class="cls-1" d="M2259.88,337.64l14.59-35.82c13.63,6.03,24.44,7.96,34.33,7.96,24.07,0,31.44-11.03,31.44-35.49v-121.44h-67.96v-39.24h118.05v158.64c0,41.22-17.22,76.87-78.49,76.87-20.79,0-37.46-4.76-51.96-11.47ZM2329.75,56.64c0-18.33,13.95-31.1,33.26-31.1s33.26,12.77,33.26,31.1-13.95,30.61-33.26,30.61-33.26-12.19-33.26-30.61Z"/>
  <path class="cls-1" d="M2467.74,260.63l21.28-31.23c20.77,12.87,43.96,20,68.11,20,18.57,0,26.78-6.17,26.78-14.47,0-9.4-8.18-12.84-41.31-19.82-45.91-9.83-64.16-26.67-64.16-52.73,0-31.45,29.37-52.84,77.57-52.84,30.09,0,55.51,11.83,73.07,23.06l-22.45,30.06c-17.03-10.3-36.57-16.12-55.21-16.12-15.63,0-23.38,5.58-23.38,13.51,0,9.38,10.36,11.58,38.99,17.99,52.08,11.66,66.58,26.5,66.58,53.98,0,30.56-29.14,54.49-83.31,54.49-30.11,0-61.24-11.66-82.54-25.86Z"/>
  <path class="cls-1" d="M2995.19,40.83h41.87l-112.09,296.01h-41.87l112.09-296.01Z"/>
  <path class="cls-1" d="M3095.37,226.58l90.29-56.45v-1.36l-90.29-56.45v-45.39l131.57,85.25v34.54l-131.57,85.25v-45.39Z"/>
</svg>